<?xml version="1.0" encoding="utf-8"?>
<!-- Generator: Adobe Illustrator 13.0.0, SVG Export Plug-In . SVG Version: 6.00 Build 14948)  -->
<!DOCTYPE svg PUBLIC "-//W3C//DTD SVG 1.1//EN" "http://www.w3.org/Graphics/SVG/1.1/DTD/svg11.dtd">
<svg version="1.1" id="Слой_1" xmlns="http://www.w3.org/2000/svg" xmlns:xlink="http://www.w3.org/1999/xlink" x="0px" y="0px"
	 width="75.93px" height="64.561px" viewBox="0 0 75.93 64.561" enable-background="new 0 0 75.93 64.561" xml:space="preserve">
<g>
	<path fill="none" stroke="#21A4FF" stroke-width="2" stroke-linecap="round" stroke-linejoin="round" d="M14.6,58.02
		c1.69-1.449,3.67-1.459,6.52-1.459h3.04l3.5-5.121"/>
	<path fill="none" stroke="#21A4FF" stroke-width="2" stroke-linecap="round" stroke-linejoin="round" d="M49.96,58.02
		c-1.66-1.58-3.399-1.459-6.38-1.459h-3.04l-3.58-5.121"/>
	<path fill="none" stroke="#21A4FF" stroke-width="2" stroke-linecap="round" stroke-linejoin="round" d="M31.27,51.23
		c5.6,0,10.71-7.4,10.71-13.73c3.56-2.939,0.439-13.72,0.439-13.72c0.25-3.45-3.25-11.78-13.18-6.87c-7.26,3.6-9.12,3.07-9.12,6.87
		c0,0-2.72,6.53,0.43,13.72C20.55,43.83,25.67,51.23,31.27,51.23z"/>
	<path fill="none" stroke="#21A4FF" stroke-width="2" stroke-linecap="round" stroke-linejoin="round" d="M52.83,55.87
		c-5.5,4.79-12.68,7.69-20.55,7.69C15.01,63.561,1,49.561,1,32.28C1,15.01,15.01,1,32.28,1c17.28,0,31.28,14.01,31.28,31.28
		c0,0.75-0.021,1.489-0.08,2.229"/>
	<g>
		
			<line fill="none" stroke="#51606F" stroke-width="2" stroke-linecap="round" stroke-linejoin="round" x1="74.93" y1="60.63" x2="66.72" y2="52.41"/>
		<path fill="none" stroke="#51606F" stroke-width="2" stroke-linecap="round" stroke-linejoin="round" d="M68.09,45.57
			c0,4.529-3.689,8.21-8.25,8.21c-4.55,0-8.189-3.681-8.189-8.21c0-4.54,3.649-8.23,8.189-8.221C64.4,37.35,68.09,41.03,68.09,45.57
			z"/>
	</g>
	
		<path fill-rule="evenodd" clip-rule="evenodd" fill="none" stroke="#21A4FF" stroke-width="2" stroke-linecap="round" stroke-linejoin="round" d="
		M22,28c-0.17-0.5,5-2.33,4.67-3.67c0,0,7.5,5.5,12.33,2.67"/>
</g>
</svg>
