<?xml version="1.0" encoding="utf-8"?>
<!-- Generator: Adobe Illustrator 13.0.0, SVG Export Plug-In . SVG Version: 6.00 Build 14948)  -->
<!DOCTYPE svg PUBLIC "-//W3C//DTD SVG 1.1//EN" "http://www.w3.org/Graphics/SVG/1.1/DTD/svg11.dtd">
<svg version="1.1" id="Слой_1" xmlns="http://www.w3.org/2000/svg" xmlns:xlink="http://www.w3.org/1999/xlink" x="0px" y="0px"
	 width="79.997px" height="70.996px" viewBox="0 0 79.997 70.996" enable-background="new 0 0 79.997 70.996" xml:space="preserve">
<g>
	<g>
		
			<path fill-rule="evenodd" clip-rule="evenodd" fill="none" stroke="#21A4FF" stroke-width="2" stroke-linecap="round" stroke-linejoin="round" d="
			M57.308,25.367c-0.811-5.88-3.49-11.56-8.011-16.08c-11.05-11.05-28.96-11.05-40.01,0s-11.05,28.96,0,40.01s28.96,11.05,40.01,0
			l0.48-0.489"/>
		<path fill="none" stroke="#21A4FF" stroke-width="2" stroke-linecap="round" stroke-linejoin="round" d="M34.507,32.777
			l6.54-15.54c0.45-1.07-0.63-2.16-1.71-1.71l-15.54,6.55c-0.32,0.14-0.58,0.4-0.71,0.73l-5.72,14.72
			c-0.41,1.06,0.63,2.1,1.69,1.689l14.72-5.729C34.107,33.357,34.367,33.107,34.507,32.777z"/>
		
			<line fill="none" stroke="#21A4FF" stroke-width="2" stroke-linecap="round" stroke-linejoin="round" x1="23.857" y1="23.857" x2="33.897" y2="33.897"/>
		
			<line fill="none" stroke="#21A4FF" stroke-width="2" stroke-linecap="round" stroke-linejoin="round" x1="29.287" y1="1.287" x2="29.287" y2="6.287"/>
		
			<line fill="none" stroke="#21A4FF" stroke-width="2" stroke-linecap="round" stroke-linejoin="round" x1="29.287" y1="52.287" x2="29.287" y2="57.287"/>
		
			<line fill="none" stroke="#21A4FF" stroke-width="2" stroke-linecap="round" stroke-linejoin="round" x1="6.287" y1="29.577" x2="1.287" y2="29.577"/>
	</g>
	<g>
		<g>
			<path fill="none" stroke="#51606F" stroke-width="2" stroke-linecap="round" stroke-linejoin="round" d="M78.997,40.597
				c-0.04-9.169-6.939-16.6-15.5-16.6s-15.5,7.43-15.5,16.6c0,9.391,9.689,23.181,13.74,28.521c0.88,1.17,2.59,1.17,3.479,0.01
				C69.287,63.787,79.037,49.987,78.997,40.597z"/>
			<path fill="none" stroke="#51606F" stroke-width="2" stroke-linecap="round" stroke-linejoin="round" d="M67.927,40.037
				c0-2.53-1.979-4.58-4.43-4.58s-4.43,2.05-4.43,4.58s1.979,4.58,4.43,4.58S67.927,42.567,67.927,40.037z"/>
		</g>
	</g>
</g>
</svg>
