<?xml version="1.0" encoding="utf-8"?>
<!-- Generator: Adobe Illustrator 13.0.0, SVG Export Plug-In . SVG Version: 6.00 Build 14948)  -->
<!DOCTYPE svg PUBLIC "-//W3C//DTD SVG 1.1//EN" "http://www.w3.org/Graphics/SVG/1.1/DTD/svg11.dtd">
<svg version="1.1" id="Слой_1" xmlns="http://www.w3.org/2000/svg" xmlns:xlink="http://www.w3.org/1999/xlink" x="0px" y="0px"
	 width="86px" height="58px" viewBox="0 0 86 58" enable-background="new 0 0 86 58" xml:space="preserve">
<g>
	<g>
		
			<path fill-rule="evenodd" clip-rule="evenodd" fill="none" stroke="#21A4FF" stroke-width="2" stroke-linecap="round" stroke-linejoin="round" d="
			M75,29V6c0-2.76-2.24-5-5-5H20c-2.76,0-5,2.24-5,5v12"/>
		
			<line fill-rule="evenodd" clip-rule="evenodd" fill="none" stroke="#21A4FF" stroke-width="2" stroke-linecap="round" stroke-linejoin="round" x1="31" y1="41" x2="68" y2="41"/>
		
			<line fill-rule="evenodd" clip-rule="evenodd" fill="none" stroke="#21A4FF" stroke-width="2" stroke-linecap="round" stroke-linejoin="round" x1="31" y1="34" x2="75" y2="34"/>
		
			<rect x="39" y="41" fill-rule="evenodd" clip-rule="evenodd" fill="none" stroke="#21A4FF" stroke-width="2" stroke-linecap="round" stroke-linejoin="round" width="12" height="9"/>
		
			<line fill-rule="evenodd" clip-rule="evenodd" fill="none" stroke="#21A4FF" stroke-width="2" stroke-linecap="round" stroke-linejoin="round" x1="32" y1="50" x2="59" y2="50"/>
	</g>
	<g>
		<g>
			
				<rect x="68" y="29" fill-rule="evenodd" clip-rule="evenodd" fill="none" stroke="#21A4FF" stroke-width="2" stroke-linecap="round" stroke-linejoin="round" width="17" height="28"/>
			
				<line fill-rule="evenodd" clip-rule="evenodd" fill="none" stroke="#21A4FF" stroke-width="2" stroke-linecap="round" stroke-linejoin="round" x1="68" y1="52" x2="84" y2="52"/>
			
				<line fill-rule="evenodd" clip-rule="evenodd" fill="none" stroke="#21A4FF" stroke-width="2" stroke-linecap="round" stroke-linejoin="round" x1="68" y1="34" x2="84" y2="34"/>
		</g>
	</g>
	<g>
		
			<polyline fill-rule="evenodd" clip-rule="evenodd" fill="none" stroke="#51606F" stroke-width="2" stroke-linecap="round" stroke-linejoin="round" points="
			69,12 69,7 64,7 		"/>
	</g>
	<g>
		
			<path fill-rule="evenodd" clip-rule="evenodd" fill="none" stroke="#51606F" stroke-width="2" stroke-linecap="round" stroke-linejoin="round" d="
			M26,18H6c-2.76,0-5,2.24-5,5v29c0,2.76,2.24,5,5,5h3H7.75H26c2.76,0,5-2.24,5-5V23C31,20.24,28.76,18,26,18z"/>
		
			<line fill-rule="evenodd" clip-rule="evenodd" fill="none" stroke="#51606F" stroke-width="2" stroke-linecap="round" stroke-linejoin="round" x1="2" y1="24" x2="31" y2="24"/>
		
			<line fill-rule="evenodd" clip-rule="evenodd" fill="none" stroke="#51606F" stroke-width="2" stroke-linecap="round" stroke-linejoin="round" x1="1" y1="51" x2="30" y2="51"/>
	</g>
	
		<polyline fill-rule="evenodd" clip-rule="evenodd" fill="none" stroke="#21A4FF" stroke-width="2" stroke-linecap="round" stroke-linejoin="round" points="
		7,42 7,46 11,46 	"/>
	
		<polyline fill-rule="evenodd" clip-rule="evenodd" fill="none" stroke="#21A4FF" stroke-width="2" stroke-linecap="round" stroke-linejoin="round" points="
		26,33 26,29 22,29 	"/>
</g>
</svg>
