<?xml version="1.0" encoding="utf-8"?>
<!-- Generator: Adobe Illustrator 13.0.0, SVG Export Plug-In . SVG Version: 6.00 Build 14948)  -->
<!DOCTYPE svg PUBLIC "-//W3C//DTD SVG 1.1//EN" "http://www.w3.org/Graphics/SVG/1.1/DTD/svg11.dtd">
<svg version="1.1" id="Слой_1" xmlns="http://www.w3.org/2000/svg" xmlns:xlink="http://www.w3.org/1999/xlink" x="0px" y="0px"
	 width="72px" height="72px" viewBox="0 0 72 72" enable-background="new 0 0 72 72" xml:space="preserve">
<g>
	<g>
		
			<path fill-rule="evenodd" clip-rule="evenodd" fill="none" stroke="#51606F" stroke-width="2" stroke-linecap="round" stroke-linejoin="round" d="
			M50.58,42.189l0.42,0.42V6c0-2.76-2.24-5-5-5H6C3.24,1,1,3.24,1,6v60c0,2.76,2.24,5,5,5h3h8.75H46c2.76,0,5-2.24,5-5v-2.42"/>
		
			<line fill-rule="evenodd" clip-rule="evenodd" fill="none" stroke="#51606F" stroke-width="2" stroke-linecap="round" stroke-linejoin="round" x1="1" y1="10" x2="50" y2="10"/>
	</g>
	<path fill-rule="evenodd" clip-rule="evenodd" fill="#21A4FF" d="M40.75,48.55c0.12-0.13,0.2-0.29,0.23-0.46l-5.92-5.92
		c-1.721,0.1-4.021-0.46-6.871-2.1l-1.97,1.66h-0.43l-2.08-1.66c-10.36,6.05-12.67-2.11-8.62-4.41c0.57,0.32,0.87,0.561,1.58,1.24
		c-1.01-0.18-2.58,0.55-2.58,1.789c0,4.08,4.62,2.631,6.52,1.221c0.09-0.061,0.99-0.891,1.56-1.41l-0.45-0.49l-0.03-0.199
		l0.24-0.011c1.271,0.91,2.58,1.38,3.86,2.261h0.43c1.3-0.86,2.561-1.42,3.86-2.24l0.25,0.01v0.22l-0.471,0.44
		c0.311,0.33,0.711,0.89,1.431,1.42c0.68,0.51,1.729,1.02,2.8,1.27c-0.96-1.13-1.01-2.729,0.061-3.8
		c0.399-0.399,0.869-0.64,1.359-0.739c0.521-0.49,0.811-0.711,1.301-0.98c1,0.65,1.609,1.5,1.859,2.37l1.53,1.53
		c-0.32-3.91-0.57-7.771-0.81-11.23C26.01,29.17,25.79,29.17,12.57,28.12c-0.4,5.9-0.82,13.17-1.56,19.69
		c-0.04,0.279,0.05,0.529,0.24,0.739s0.45,0.28,0.73,0.32c10.51,1.51,17.37,1.51,28.04,0C40.311,48.83,40.561,48.76,40.75,48.55z
		 M21.7,31.06l0.02,1.88h-3.4l-0.02-1.47L21.7,31.06z M33.74,31.47l-0.021,1.47H30.3l0.011-1.88L33.74,31.47z M27.62,44.74
		c0.59-0.141,1.63-0.28,3.72-1.5c0.25-0.141,0.891,1.16,0.891,2.529c0,1.381-0.711,2.17-0.881,2.17c-0.13,0-3.06-1.08-3.97-1.279
		c-0.92,0.68-1.76,0.68-2.68,0.02c-0.56,0.17-3.83,1.26-3.88,1.26c-0.16,0-0.81-0.789-0.81-2.17c0-1.369,0.53-2.66,0.79-2.529
		c1.83,0.92,3.42,1.359,3.68,1.439C25.43,43.721,26.73,43.74,27.62,44.74z M38.99,21H13.01c-0.27,0-0.51,0.09-0.7,0.28
		c-0.19,0.19-0.28,0.42-0.28,0.68c0.02,2.28-0.47,2.86-0.71,4.8c9.76,0.94,19.62,0.94,29.36,0c-0.24-1.94-0.729-2.52-0.71-4.8
		c0-0.26-0.09-0.49-0.28-0.68C39.49,21.09,39.26,21,38.99,21z M14.64,26.22l0.12-2.1c3.62-0.4,5.26-0.2,8.8,1.24l-0.22,0.67
		C23.34,26.03,18.77,24.62,14.64,26.22z M37.359,26.22c-4.129-1.6-8.699-0.19-8.699-0.19l-0.22-0.67c3.53-1.44,5.18-1.64,8.8-1.24
		L37.359,26.22z"/>
	
		<line fill-rule="evenodd" clip-rule="evenodd" fill="none" stroke="#51606F" stroke-width="2" stroke-linecap="round" stroke-linejoin="round" x1="1" y1="62" x2="46" y2="62"/>
	<path fill="none" stroke="#21A4FF" stroke-width="2" stroke-linecap="round" stroke-linejoin="round" d="M55.85,39.721
		c-1.13-1.131-2.869-1.261-4-0.131c-1.13,1.12-1.039,2.84,0.101,3.971l-1.37-1.371c-1.141-1.14-2.88-1.26-4.01-0.129
		c-1.12,1.129-1.03,2.84,0.1,3.97l-8.55-8.55c-1.13-1.131-2.851-1.221-3.97-0.101c-1.131,1.13-1.01,2.87,0.13,4.011L47.72,54.83
		L41.3,54.6c-1.58-0.01-2.81,1.32-2.79,2.931c0.01,1.62,1.09,2.45,2.65,2.729c5.29,0.961,18.73,8.301,22.83,4.2
		c2.74-2.739,5.64-5.53,5.64-5.53S71,57.57,71,54.83v-6.85c-0.43-1.03-1.17-2.041-2.109-2.971l-7.721-7.72
		c-1.13-1.13-2.87-1.26-4-0.13s-1.029,2.84,0.1,3.98L55.85,39.721z"/>
</g>
</svg>
