<?xml version="1.0" encoding="utf-8"?>
<!-- Generator: Adobe Illustrator 13.0.0, SVG Export Plug-In . SVG Version: 6.00 Build 14948)  -->
<!DOCTYPE svg PUBLIC "-//W3C//DTD SVG 1.1//EN" "http://www.w3.org/Graphics/SVG/1.1/DTD/svg11.dtd">
<svg version="1.1" id="Слой_1" xmlns="http://www.w3.org/2000/svg" xmlns:xlink="http://www.w3.org/1999/xlink" x="0px" y="0px"
	 width="80px" height="56px" viewBox="0 0 80 56" enable-background="new 0 0 80 56" xml:space="preserve">
<g>
	
		<path fill-rule="evenodd" clip-rule="evenodd" fill="none" stroke="#51606F" stroke-width="2" stroke-linecap="round" stroke-linejoin="round" d="
		M19,23H4c-1.66,0-3,1.34-3,3v18c0,1.66,1.34,3,3,3h25l8,8V44v-4v-4"/>
	
		<path fill-rule="evenodd" clip-rule="evenodd" fill="none" stroke="#21A4FF" stroke-width="2" stroke-linecap="round" stroke-linejoin="round" d="
		M45,36v4v11l8-8h23c1.66,0,3-1.34,3-3V27c0-1.66-1.34-3-3-3H63"/>
	
		<line fill-rule="evenodd" clip-rule="evenodd" fill="none" stroke="#51606F" stroke-width="2" stroke-linecap="round" stroke-linejoin="round" x1="7" y1="30" x2="19" y2="30"/>
	
		<line fill-rule="evenodd" clip-rule="evenodd" fill="none" stroke="#51606F" stroke-width="2" stroke-linecap="round" stroke-linejoin="round" x1="7" y1="34" x2="32" y2="34"/>
	
		<line fill-rule="evenodd" clip-rule="evenodd" fill="none" stroke="#51606F" stroke-width="2" stroke-linecap="round" stroke-linejoin="round" x1="7" y1="38" x2="24" y2="38"/>
	
		<path fill-rule="evenodd" clip-rule="evenodd" fill="none" stroke="#21A4FF" stroke-width="2" stroke-linecap="round" stroke-linejoin="round" d="
		M22,1c-1.66,0-3,1.34-3,3v27c0,1.66,1.34,3,3,3h13l6,6l6-6h13c1.66,0,3-1.34,3-3V4c0-1.66-1.34-3-3-3H22z"/>
	
		<polyline fill-rule="evenodd" clip-rule="evenodd" fill="none" stroke="#21A4FF" stroke-width="2" stroke-linecap="round" stroke-linejoin="round" points="
		57,11 57,7 53,7 	"/>
	
		<polyline fill-rule="evenodd" clip-rule="evenodd" fill="none" stroke="#21A4FF" stroke-width="2" stroke-linecap="round" stroke-linejoin="round" points="
		26,25 26,29 30,29 	"/>
	
		<line fill-rule="evenodd" clip-rule="evenodd" fill="none" stroke="#51606F" stroke-width="2" stroke-linecap="round" stroke-linejoin="round" x1="27" y1="38" x2="28" y2="38"/>
	
		<line fill-rule="evenodd" clip-rule="evenodd" fill="none" stroke="#21A4FF" stroke-width="2" stroke-linecap="round" stroke-linejoin="round" x1="63" y1="30" x2="74" y2="30"/>
	
		<line fill-rule="evenodd" clip-rule="evenodd" fill="none" stroke="#21A4FF" stroke-width="2" stroke-linecap="round" stroke-linejoin="round" x1="56" y1="34" x2="74" y2="34"/>
	
		<line fill-rule="evenodd" clip-rule="evenodd" fill="none" stroke="#21A4FF" stroke-width="2" stroke-linecap="round" stroke-linejoin="round" x1="56" y1="38" x2="74" y2="38"/>
	<path fill-rule="evenodd" clip-rule="evenodd" fill="#51606F" d="M40.45,13.1c0.72-1.7,2.36-2.89,4.27-2.89
		c2.57,0,4.42,2.2,4.65,4.82c0,0,0.13,0.65-0.15,1.83c-0.38,1.59-1.26,3.01-2.45,4.09l-6.319,5.64l-6.21-5.64
		c-1.2-1.08-2.08-2.5-2.46-4.09c-0.28-1.18-0.15-1.83-0.15-1.83c0.23-2.62,2.08-4.82,4.66-4.82C38.19,10.21,39.73,11.4,40.45,13.1z"
		/>
</g>
</svg>
